<?xml version="1.0" standalone="no"?>

<!DOCTYPE svg PUBLIC "-//W3C//DTD SVG 1.1//EN" 
"http://www.w3.org/Graphics/SVG/1.1/DTD/svg11.dtd">
 
<svg width="100%" height="100%" version="1.1"
xmlns="http://www.w3.org/2000/svg">
 <g transform="translate(10  0)">
    <rect x="0" y="0" width="3000.0" height="5000.0"  fill="none" stroke="#010101" stroke-width="1" />
<g id="8" transform="translate(21194.486510 -13215.38840) rotate(144.0)"> 
<path d="M23356.0 1.0 L25494.0 0.0 L25495.0 66.0 L25497.0 54.0 L25519.0 54.0 L25616.0 80.0 L25690.0 122.0 L25739.0 135.0 L26000.0 138.0 L26010.0 148.0 L26010.0 256.0 L26000.0 266.0 L25681.0 266.0 L25540.0 188.0 L25447.0 186.0 L25446.0 175.0 L25444.0 241.0 L23407.0 241.0 L23406.0 175.0 L23405.0 186.0 L23309.0 189.0 L23171.0 266.0 L22852.0 266.0 L22842.0 256.0 L22842.0 148.0 L22852.0 138.0 L23112.0 135.0 L23150.0 125.0 L23236.0 80.0 L23332.0 54.0 L23355.0 54.0 L23356.0 66.0 L23356.0 1.0 Z" fill="#8498d1" stroke="#010101" stroke-width="1" /> 
</g> 
<g id="7" transform="translate(-3913.211210 -17942.52870) rotate(72.0)"> 
<path d="M20138.0 1.0 L22276.0 0.0 L22277.0 66.0 L22279.0 54.0 L22301.0 54.0 L22398.0 80.0 L22472.0 122.0 L22521.0 135.0 L22782.0 138.0 L22792.0 148.0 L22792.0 256.0 L22782.0 266.0 L22463.0 266.0 L22322.0 188.0 L22229.0 186.0 L22228.0 175.0 L22226.0 241.0 L20189.0 241.0 L20188.0 175.0 L20187.0 186.0 L20091.0 189.0 L19953.0 266.0 L19634.0 266.0 L19624.0 256.0 L19624.0 148.0 L19634.0 138.0 L19894.0 135.0 L19932.0 125.0 L20018.0 80.0 L20114.0 54.0 L20137.0 54.0 L20138.0 66.0 L20138.0 1.0 Z" fill="#8498d1" stroke="#010101" stroke-width="1" /> 
</g> 
<g id="1" transform="translate(2970.569810 2912.3860) rotate(144.0)"> 
<path d="M830.0 1.0 L2968.0 0.0 L2969.0 66.0 L2971.0 54.0 L2993.0 54.0 L3090.0 80.0 L3164.0 122.0 L3213.0 135.0 L3474.0 138.0 L3484.0 148.0 L3484.0 256.0 L3474.0 266.0 L3155.0 266.0 L3014.0 188.0 L2921.0 186.0 L2920.0 175.0 L2918.0 241.0 L881.0 241.0 L880.0 175.0 L879.0 186.0 L783.0 189.0 L645.0 266.0 L326.0 266.0 L316.0 256.0 L316.0 148.0 L326.0 138.0 L586.0 135.0 L624.0 125.0 L710.0 80.0 L806.0 54.0 L829.0 54.0 L830.0 66.0 L830.0 1.0 Z" fill="#8498d1" stroke="#010101" stroke-width="1" /> 
</g> 
<g id="3" transform="translate(-2219.386810 10997.51140) rotate(288.0)"> 
<path d="M7266.0 1.0 L9404.0 0.0 L9405.0 66.0 L9407.0 54.0 L9429.0 54.0 L9526.0 80.0 L9600.0 122.0 L9649.0 135.0 L9910.0 138.0 L9920.0 148.0 L9920.0 256.0 L9910.0 266.0 L9591.0 266.0 L9450.0 188.0 L9357.0 186.0 L9356.0 175.0 L9354.0 241.0 L7317.0 241.0 L7316.0 175.0 L7315.0 186.0 L7219.0 189.0 L7081.0 266.0 L6762.0 266.0 L6752.0 256.0 L6752.0 148.0 L6762.0 138.0 L7022.0 135.0 L7060.0 125.0 L7146.0 80.0 L7242.0 54.0 L7265.0 54.0 L7266.0 66.0 L7266.0 1.0 Z" fill="#8498d1" stroke="#010101" stroke-width="1" /> 
</g> 
</g> 
 <g transform="translate(10  5050)">
    <rect x="0" y="0" width="3000.0" height="5000.0"  fill="none" stroke="#010101" stroke-width="1" />
<g id="6" transform="translate(-4818.415410 -15647.34125050) rotate(72.0)"> 
<path d="M16920.0 1.0 L19058.0 0.0 L19059.0 66.0 L19061.0 54.0 L19083.0 54.0 L19180.0 80.0 L19254.0 122.0 L19303.0 135.0 L19564.0 138.0 L19574.0 148.0 L19574.0 256.0 L19564.0 266.0 L19245.0 266.0 L19104.0 188.0 L19011.0 186.0 L19010.0 175.0 L19008.0 241.0 L16971.0 241.0 L16970.0 175.0 L16969.0 186.0 L16873.0 189.0 L16735.0 266.0 L16416.0 266.0 L16406.0 256.0 L16406.0 148.0 L16416.0 138.0 L16676.0 135.0 L16714.0 125.0 L16800.0 80.0 L16896.0 54.0 L16919.0 54.0 L16920.0 66.0 L16920.0 1.0 Z" fill="#8498d1" stroke="#010101" stroke-width="1" /> 
</g> 
<g id="5" transform="translate(13302.206310 9824.61785050) rotate(216.0)"> 
<path d="M13702.0 1.0 L15840.0 0.0 L15841.0 66.0 L15843.0 54.0 L15865.0 54.0 L15962.0 80.0 L16036.0 122.0 L16085.0 135.0 L16346.0 138.0 L16356.0 148.0 L16356.0 256.0 L16346.0 266.0 L16027.0 266.0 L15886.0 188.0 L15793.0 186.0 L15792.0 175.0 L15790.0 241.0 L13753.0 241.0 L13752.0 175.0 L13751.0 186.0 L13655.0 189.0 L13517.0 266.0 L13198.0 266.0 L13188.0 256.0 L13188.0 148.0 L13198.0 138.0 L13458.0 135.0 L13496.0 125.0 L13582.0 80.0 L13678.0 54.0 L13701.0 54.0 L13702.0 66.0 L13702.0 1.0 Z" fill="#8498d1" stroke="#010101" stroke-width="1" /> 
</g> 
<g id="2" transform="translate(5336.521210 6512.30795050) rotate(216.0)"> 
<path d="M4048.0 1.0 L6186.0 0.0 L6187.0 66.0 L6189.0 54.0 L6211.0 54.0 L6308.0 80.0 L6382.0 122.0 L6431.0 135.0 L6692.0 138.0 L6702.0 148.0 L6702.0 256.0 L6692.0 266.0 L6373.0 266.0 L6232.0 188.0 L6139.0 186.0 L6138.0 175.0 L6136.0 241.0 L4099.0 241.0 L4098.0 175.0 L4097.0 186.0 L4001.0 189.0 L3863.0 266.0 L3544.0 266.0 L3534.0 256.0 L3534.0 148.0 L3544.0 138.0 L3804.0 135.0 L3842.0 125.0 L3928.0 80.0 L4024.0 54.0 L4047.0 54.0 L4048.0 66.0 L4048.0 1.0 Z" fill="#8498d1" stroke="#010101" stroke-width="1" /> 
</g> 
<g id="4" transform="translate(10543.354510 10627.7965050) rotate(216.0)"> 
<path d="M10484.0 1.0 L12622.0 0.0 L12623.0 66.0 L12625.0 54.0 L12647.0 54.0 L12744.0 80.0 L12818.0 122.0 L12867.0 135.0 L13128.0 138.0 L13138.0 148.0 L13138.0 256.0 L13128.0 266.0 L12809.0 266.0 L12668.0 188.0 L12575.0 186.0 L12574.0 175.0 L12572.0 241.0 L10535.0 241.0 L10534.0 175.0 L10533.0 186.0 L10437.0 189.0 L10299.0 266.0 L9980.0 266.0 L9970.0 256.0 L9970.0 148.0 L9980.0 138.0 L10240.0 135.0 L10278.0 125.0 L10364.0 80.0 L10460.0 54.0 L10483.0 54.0 L10484.0 66.0 L10484.0 1.0 Z" fill="#8498d1" stroke="#010101" stroke-width="1" /> 
</g> 
</g> 
</svg>