<?xml version="1.0" standalone="no"?>

<!DOCTYPE svg PUBLIC "-//W3C//DTD SVG 1.1//EN" 
"http://www.w3.org/Graphics/SVG/1.1/DTD/svg11.dtd">
 
<svg width="100%" height="100%" version="1.1"
xmlns="http://www.w3.org/2000/svg">
 <g transform="translate(10  0)">
    <rect x="0" y="0" width="6000.0" height="10000.0"  fill="none" stroke="#010101" stroke-width="1" />
<g id="6" transform="translate(-22138.510 1.50) rotate(0.0)"> 
<path d="M22654.0 1.0 L24792.0 0.0 L24793.0 66.0 L24795.0 54.0 L24817.0 54.0 L24914.0 80.0 L24988.0 122.0 L25037.0 135.0 L25298.0 138.0 L25308.0 148.0 L25308.0 256.0 L25298.0 266.0 L24979.0 266.0 L24838.0 188.0 L24745.0 186.0 L24744.0 175.0 L24742.0 241.0 L22705.0 241.0 L22704.0 175.0 L22703.0 186.0 L22607.0 189.0 L22469.0 266.0 L22150.0 266.0 L22140.0 256.0 L22140.0 148.0 L22150.0 138.0 L22410.0 135.0 L22448.0 125.0 L22534.0 80.0 L22630.0 54.0 L22653.0 54.0 L22654.0 66.0 L22654.0 1.0 Z" fill="#8498d1" stroke="#010101" stroke-width="1" /> 
</g> 
<g id="5" transform="translate(701.111910 -18715.07990) rotate(90.0)"> 
<path d="M19436.0 1.0 L21574.0 0.0 L21575.0 66.0 L21577.0 54.0 L21599.0 54.0 L21696.0 80.0 L21770.0 122.0 L21819.0 135.0 L22080.0 138.0 L22090.0 148.0 L22090.0 256.0 L22080.0 266.0 L21761.0 266.0 L21620.0 188.0 L21527.0 186.0 L21526.0 175.0 L21524.0 241.0 L19487.0 241.0 L19486.0 175.0 L19485.0 186.0 L19389.0 189.0 L19251.0 266.0 L18932.0 266.0 L18922.0 256.0 L18922.0 148.0 L18932.0 138.0 L19192.0 135.0 L19230.0 125.0 L19316.0 80.0 L19412.0 54.0 L19435.0 54.0 L19436.0 66.0 L19436.0 1.0 Z" fill="#8498d1" stroke="#010101" stroke-width="1" /> 
</g> 
<g id="7" transform="translate(2873.269710 -25150.88250) rotate(90.0)"> 
<path d="M25872.0 1.0 L28010.0 0.0 L28011.0 66.0 L28013.0 54.0 L28035.0 54.0 L28132.0 80.0 L28206.0 122.0 L28255.0 135.0 L28516.0 138.0 L28526.0 148.0 L28526.0 256.0 L28516.0 266.0 L28197.0 266.0 L28056.0 188.0 L27963.0 186.0 L27962.0 175.0 L27960.0 241.0 L25923.0 241.0 L25922.0 175.0 L25921.0 186.0 L25825.0 189.0 L25687.0 266.0 L25368.0 266.0 L25358.0 256.0 L25358.0 148.0 L25368.0 138.0 L25628.0 135.0 L25666.0 125.0 L25752.0 80.0 L25848.0 54.0 L25871.0 54.0 L25872.0 66.0 L25872.0 1.0 Z" fill="#8498d1" stroke="#010101" stroke-width="1" /> 
</g> 
<g id="4" transform="translate(703.130910 19117.49990) rotate(270.0)"> 
<path d="M16218.0 1.0 L18356.0 0.0 L18357.0 66.0 L18359.0 54.0 L18381.0 54.0 L18478.0 80.0 L18552.0 122.0 L18601.0 135.0 L18862.0 138.0 L18872.0 148.0 L18872.0 256.0 L18862.0 266.0 L18543.0 266.0 L18402.0 188.0 L18309.0 186.0 L18308.0 175.0 L18306.0 241.0 L16269.0 241.0 L16268.0 175.0 L16267.0 186.0 L16171.0 189.0 L16033.0 266.0 L15714.0 266.0 L15704.0 256.0 L15704.0 148.0 L15714.0 138.0 L15974.0 135.0 L16012.0 125.0 L16098.0 80.0 L16194.0 54.0 L16217.0 54.0 L16218.0 66.0 L16218.0 1.0 Z" fill="#8498d1" stroke="#010101" stroke-width="1" /> 
</g> 
<g id="9" transform="translate(34963.499810 3657.49980) rotate(180.0)"> 
<path d="M32308.0 1.0 L34446.0 0.0 L34447.0 66.0 L34449.0 54.0 L34471.0 54.0 L34568.0 80.0 L34642.0 122.0 L34691.0 135.0 L34952.0 138.0 L34962.0 148.0 L34962.0 256.0 L34952.0 266.0 L34633.0 266.0 L34492.0 188.0 L34399.0 186.0 L34398.0 175.0 L34396.0 241.0 L32359.0 241.0 L32358.0 175.0 L32357.0 186.0 L32261.0 189.0 L32123.0 266.0 L31804.0 266.0 L31794.0 256.0 L31794.0 148.0 L31804.0 138.0 L32064.0 135.0 L32102.0 125.0 L32188.0 80.0 L32284.0 54.0 L32307.0 54.0 L32308.0 66.0 L32308.0 1.0 Z" fill="#8498d1" stroke="#010101" stroke-width="1" /> 
</g> 
<g id="15" transform="translate(-51100.500110 3659.50070) rotate(0.0)"> 
<path d="M51616.0 1.0 L53754.0 0.0 L53755.0 66.0 L53757.0 54.0 L53779.0 54.0 L53876.0 80.0 L53950.0 122.0 L53999.0 135.0 L54260.0 138.0 L54270.0 148.0 L54270.0 256.0 L54260.0 266.0 L53941.0 266.0 L53800.0 188.0 L53707.0 186.0 L53706.0 175.0 L53704.0 241.0 L51667.0 241.0 L51666.0 175.0 L51665.0 186.0 L51569.0 189.0 L51431.0 266.0 L51112.0 266.0 L51102.0 256.0 L51102.0 148.0 L51112.0 138.0 L51372.0 135.0 L51410.0 125.0 L51496.0 80.0 L51592.0 54.0 L51615.0 54.0 L51616.0 66.0 L51616.0 1.0 Z" fill="#8498d1" stroke="#010101" stroke-width="1" /> 
</g> 
<g id="13" transform="translate(3438.499710 -44418.49950) rotate(90.0)"> 
<path d="M45180.0 1.0 L47318.0 0.0 L47319.0 66.0 L47321.0 54.0 L47343.0 54.0 L47440.0 80.0 L47514.0 122.0 L47563.0 135.0 L47824.0 138.0 L47834.0 148.0 L47834.0 256.0 L47824.0 266.0 L47505.0 266.0 L47364.0 188.0 L47271.0 186.0 L47270.0 175.0 L47268.0 241.0 L45231.0 241.0 L45230.0 175.0 L45229.0 186.0 L45133.0 189.0 L44995.0 266.0 L44676.0 266.0 L44666.0 256.0 L44666.0 148.0 L44676.0 138.0 L44936.0 135.0 L44974.0 125.0 L45060.0 80.0 L45156.0 54.0 L45179.0 54.0 L45180.0 66.0 L45180.0 1.0 Z" fill="#8498d1" stroke="#010101" stroke-width="1" /> 
</g> 
<g id="11" transform="translate(-38087.240610 3903.41120) rotate(0.0)"> 
<path d="M38744.0 1.0 L40882.0 0.0 L40883.0 66.0 L40885.0 54.0 L40907.0 54.0 L41004.0 80.0 L41078.0 122.0 L41127.0 135.0 L41388.0 138.0 L41398.0 148.0 L41398.0 256.0 L41388.0 266.0 L41069.0 266.0 L40928.0 188.0 L40835.0 186.0 L40834.0 175.0 L40832.0 241.0 L38795.0 241.0 L38794.0 175.0 L38793.0 186.0 L38697.0 189.0 L38559.0 266.0 L38240.0 266.0 L38230.0 256.0 L38230.0 148.0 L38240.0 138.0 L38500.0 135.0 L38538.0 125.0 L38624.0 80.0 L38720.0 54.0 L38743.0 54.0 L38744.0 66.0 L38744.0 1.0 Z" fill="#8498d1" stroke="#010101" stroke-width="1" /> 
</g> 
<g id="14" transform="translate(3682.410110 -47777.7590) rotate(90.0)"> 
<path d="M48398.0 1.0 L50536.0 0.0 L50537.0 66.0 L50539.0 54.0 L50561.0 54.0 L50658.0 80.0 L50732.0 122.0 L50781.0 135.0 L51042.0 138.0 L51052.0 148.0 L51052.0 256.0 L51042.0 266.0 L50723.0 266.0 L50582.0 188.0 L50489.0 186.0 L50488.0 175.0 L50486.0 241.0 L48449.0 241.0 L48448.0 175.0 L48447.0 186.0 L48351.0 189.0 L48213.0 266.0 L47894.0 266.0 L47884.0 256.0 L47884.0 148.0 L47894.0 138.0 L48154.0 135.0 L48192.0 125.0 L48278.0 80.0 L48374.0 54.0 L48397.0 54.0 L48398.0 66.0 L48398.0 1.0 Z" fill="#8498d1" stroke="#010101" stroke-width="1" /> 
</g> 
<g id="8" transform="translate(-28291.981110 4147.32170) rotate(0.0)"> 
<path d="M29090.0 1.0 L31228.0 0.0 L31229.0 66.0 L31231.0 54.0 L31253.0 54.0 L31350.0 80.0 L31424.0 122.0 L31473.0 135.0 L31734.0 138.0 L31744.0 148.0 L31744.0 256.0 L31734.0 266.0 L31415.0 266.0 L31274.0 188.0 L31181.0 186.0 L31180.0 175.0 L31178.0 241.0 L29141.0 241.0 L29140.0 175.0 L29139.0 186.0 L29043.0 189.0 L28905.0 266.0 L28586.0 266.0 L28576.0 256.0 L28576.0 148.0 L28586.0 138.0 L28846.0 135.0 L28884.0 125.0 L28970.0 80.0 L29066.0 54.0 L29089.0 54.0 L29090.0 66.0 L29090.0 1.0 Z" fill="#8498d1" stroke="#010101" stroke-width="1" /> 
</g> 
<g id="10" transform="translate(3926.337610 -35010.50010) rotate(90.0)"> 
<path d="M35526.0 1.0 L37664.0 0.0 L37665.0 66.0 L37667.0 54.0 L37689.0 54.0 L37786.0 80.0 L37860.0 122.0 L37909.0 135.0 L38170.0 138.0 L38180.0 148.0 L38180.0 256.0 L38170.0 266.0 L37851.0 266.0 L37710.0 188.0 L37617.0 186.0 L37616.0 175.0 L37614.0 241.0 L35577.0 241.0 L35576.0 175.0 L35575.0 186.0 L35479.0 189.0 L35341.0 266.0 L35022.0 266.0 L35012.0 256.0 L35012.0 148.0 L35022.0 138.0 L35282.0 135.0 L35320.0 125.0 L35406.0 80.0 L35502.0 54.0 L35525.0 54.0 L35526.0 66.0 L35526.0 1.0 Z" fill="#8498d1" stroke="#010101" stroke-width="1" /> 
</g> 
<g id="12" transform="translate(4170.31410 -41446.50010) rotate(90.0)"> 
<path d="M41962.0 1.0 L44100.0 0.0 L44101.0 66.0 L44103.0 54.0 L44125.0 54.0 L44222.0 80.0 L44296.0 122.0 L44345.0 135.0 L44606.0 138.0 L44616.0 148.0 L44616.0 256.0 L44606.0 266.0 L44287.0 266.0 L44146.0 188.0 L44053.0 186.0 L44052.0 175.0 L44050.0 241.0 L42013.0 241.0 L42012.0 175.0 L42011.0 186.0 L41915.0 189.0 L41777.0 266.0 L41458.0 266.0 L41448.0 256.0 L41448.0 148.0 L41458.0 138.0 L41718.0 135.0 L41756.0 125.0 L41842.0 80.0 L41938.0 54.0 L41961.0 54.0 L41962.0 66.0 L41962.0 1.0 Z" fill="#8498d1" stroke="#010101" stroke-width="1" /> 
</g> 
<g id="1" transform="translate(4414.290410 -6048.50) rotate(90.0)"> 
<path d="M6564.0 1.0 L8702.0 0.0 L8703.0 66.0 L8705.0 54.0 L8727.0 54.0 L8824.0 80.0 L8898.0 122.0 L8947.0 135.0 L9208.0 138.0 L9218.0 148.0 L9218.0 256.0 L9208.0 266.0 L8889.0 266.0 L8748.0 188.0 L8655.0 186.0 L8654.0 175.0 L8652.0 241.0 L6615.0 241.0 L6614.0 175.0 L6613.0 186.0 L6517.0 189.0 L6379.0 266.0 L6060.0 266.0 L6050.0 256.0 L6050.0 148.0 L6060.0 138.0 L6320.0 135.0 L6358.0 125.0 L6444.0 80.0 L6540.0 54.0 L6563.0 54.0 L6564.0 66.0 L6564.0 1.0 Z" fill="#8498d1" stroke="#010101" stroke-width="1" /> 
</g> 
<g id="2" transform="translate(-8842.721510 4391.23220) rotate(0.0)"> 
<path d="M9782.0 1.0 L11920.0 0.0 L11921.0 66.0 L11923.0 54.0 L11945.0 54.0 L12042.0 80.0 L12116.0 122.0 L12165.0 135.0 L12426.0 138.0 L12436.0 148.0 L12436.0 256.0 L12426.0 266.0 L12107.0 266.0 L11966.0 188.0 L11873.0 186.0 L11872.0 175.0 L11870.0 241.0 L9833.0 241.0 L9832.0 175.0 L9831.0 186.0 L9735.0 189.0 L9597.0 266.0 L9278.0 266.0 L9268.0 256.0 L9268.0 148.0 L9278.0 138.0 L9538.0 135.0 L9576.0 125.0 L9662.0 80.0 L9758.0 54.0 L9781.0 54.0 L9782.0 66.0 L9782.0 1.0 Z" fill="#8498d1" stroke="#010101" stroke-width="1" /> 
</g> 
<g id="3" transform="translate(15655.499910 4901.2320) rotate(180.0)"> 
<path d="M13000.0 1.0 L15138.0 0.0 L15139.0 66.0 L15141.0 54.0 L15163.0 54.0 L15260.0 80.0 L15334.0 122.0 L15383.0 135.0 L15644.0 138.0 L15654.0 148.0 L15654.0 256.0 L15644.0 266.0 L15325.0 266.0 L15184.0 188.0 L15091.0 186.0 L15090.0 175.0 L15088.0 241.0 L13051.0 241.0 L13050.0 175.0 L13049.0 186.0 L12953.0 189.0 L12815.0 266.0 L12496.0 266.0 L12486.0 256.0 L12486.0 148.0 L12496.0 138.0 L12756.0 135.0 L12794.0 125.0 L12880.0 80.0 L12976.0 54.0 L12999.0 54.0 L13000.0 66.0 L13000.0 1.0 Z" fill="#8498d1" stroke="#010101" stroke-width="1" /> 
</g> 
<g id="22" transform="translate(68556.501310 5188.23180) rotate(180.0)"> 
<path d="M65900.0 1.0 L67779.0 0.0 L67780.0 284.0 L65901.0 285.0 L65900.0 1.0 Z" fill="#8498d1" stroke="#010101" stroke-width="1" /> 
</g> 
<g id="27" transform="translate(80088.490810 5184.23580) rotate(180.0)"> 
<path d="M75550.0 1.0 L77429.0 0.0 L77430.0 284.0 L75551.0 285.0 L75550.0 1.0 Z" fill="#8498d1" stroke="#010101" stroke-width="1" /> 
</g> 
<g id="20" transform="translate(-59380.513110 5186.23570) rotate(0.0)"> 
<path d="M62040.0 1.0 L63919.0 0.0 L63920.0 284.0 L62041.0 285.0 L62040.0 1.0 Z" fill="#8498d1" stroke="#010101" stroke-width="1" /> 
</g> 
<g id="39" transform="translate(1.510 102098.53170) rotate(270.0)"> 
<path d="M98710.0 1.0 L100589.0 0.0 L100590.0 284.0 L98711.0 285.0 L98710.0 1.0 Z" fill="#8498d1" stroke="#010101" stroke-width="1" /> 
</g> 
<g id="32" transform="translate(947.02910 87699.26270) rotate(270.0)"> 
<path d="M85200.0 1.0 L87079.0 0.0 L87080.0 284.0 L85201.0 285.0 L85200.0 1.0 Z" fill="#8498d1" stroke="#010101" stroke-width="1" /> 
</g> 
<g id="25" transform="translate(1518.830410 -71444.50) rotate(90.0)"> 
<path d="M71690.0 1.0 L73569.0 0.0 L73570.0 284.0 L71691.0 285.0 L71690.0 1.0 Z" fill="#8498d1" stroke="#010101" stroke-width="1" /> 
</g> 
<g id="18" transform="translate(-57402.502610 5190.23170) rotate(0.0)"> 
<path d="M58180.0 1.0 L60059.0 0.0 L60060.0 284.0 L58181.0 285.0 L58180.0 1.0 Z" fill="#8498d1" stroke="#010101" stroke-width="1" /> 
</g> 
<g id="44" transform="translate(-105699.517110 5473.23570) rotate(0.0)"> 
<path d="M108360.0 1.0 L110239.0 0.0 L110240.0 284.0 L108361.0 285.0 L108360.0 1.0 Z" fill="#8498d1" stroke="#010101" stroke-width="1" /> 
</g> 
<g id="37" transform="translate(1520.830810 96975.50) rotate(270.0)"> 
<path d="M94850.0 1.0 L96729.0 0.0 L96730.0 284.0 L94851.0 285.0 L94850.0 1.0 Z" fill="#8498d1" stroke="#010101" stroke-width="1" /> 
</g> 
<g id="17" transform="translate(1807.831210 58375.50) rotate(270.0)"> 
<path d="M56250.0 1.0 L58129.0 0.0 L58130.0 284.0 L56251.0 285.0 L56250.0 1.0 Z" fill="#8498d1" stroke="#010101" stroke-width="1" /> 
</g> 
<g id="30" transform="translate(2379.831510 -81094.50) rotate(90.0)"> 
<path d="M81340.0 1.0 L83219.0 0.0 L83220.0 284.0 L81341.0 285.0 L81340.0 1.0 Z" fill="#8498d1" stroke="#010101" stroke-width="1" /> 
</g> 
<g id="23" transform="translate(3160.030310 -67559.50) rotate(90.0)"> 
<path d="M67830.0 1.0 L69709.0 0.0 L69710.0 284.0 L67831.0 285.0 L67830.0 1.0 Z" fill="#8498d1" stroke="#010101" stroke-width="1" /> 
</g> 
<g id="16" transform="translate(56978.493310 5762.23160) rotate(180.0)"> 
<path d="M54320.0 1.0 L56199.0 0.0 L56200.0 284.0 L54321.0 285.0 L54320.0 1.0 Z" fill="#8498d1" stroke="#010101" stroke-width="1" /> 
</g> 
<g id="42" transform="translate(-101840.005810 5761.72650) rotate(0.0)"> 
<path d="M104500.0 1.0 L106379.0 0.0 L106380.0 284.0 L104501.0 285.0 L104500.0 1.0 Z" fill="#8498d1" stroke="#010101" stroke-width="1" /> 
</g> 
<g id="35" transform="translate(93647.999510 6049.23230) rotate(180.0)"> 
<path d="M90990.0 1.0 L92869.0 0.0 L92870.0 284.0 L90991.0 285.0 L90990.0 1.0 Z" fill="#8498d1" stroke="#010101" stroke-width="1" /> 
</g> 
<g id="28" transform="translate(82019.510 6333.72720) rotate(180.0)"> 
<path d="M77480.0 1.0 L79359.0 0.0 L79360.0 284.0 L77481.0 285.0 L77480.0 1.0 Z" fill="#8498d1" stroke="#010101" stroke-width="1" /> 
</g> 
<g id="21" transform="translate(4565.924210 -60953.6280) rotate(90.0)"> 
<path d="M63970.0 1.0 L65849.0 0.0 L65850.0 284.0 L63971.0 285.0 L63970.0 1.0 Z" fill="#8498d1" stroke="#010101" stroke-width="1" /> 
</g> 
<g id="34" transform="translate(4701.017310 -89058.50) rotate(90.0)"> 
<path d="M89060.0 1.0 L90939.0 0.0 L90940.0 284.0 L89061.0 285.0 L89060.0 1.0 Z" fill="#8498d1" stroke="#010101" stroke-width="1" /> 
</g> 
<g id="40" transform="translate(4567.321510 104402.97080) rotate(270.0)"> 
<path d="M100640.0 1.0 L102519.0 0.0 L102520.0 284.0 L100641.0 285.0 L100640.0 1.0 Z" fill="#8498d1" stroke="#010101" stroke-width="1" /> 
</g> 
<g id="33" transform="translate(4568.32310 92774.97080) rotate(270.0)"> 
<path d="M87130.0 1.0 L89009.0 0.0 L89010.0 284.0 L87131.0 285.0 L87130.0 1.0 Z" fill="#8498d1" stroke="#010101" stroke-width="1" /> 
</g> 
<g id="26" transform="translate(1.510 80272.73170) rotate(270.0)"> 
<path d="M73620.0 1.0 L75499.0 0.0 L75500.0 284.0 L73621.0 285.0 L73620.0 1.0 Z" fill="#8498d1" stroke="#010101" stroke-width="1" /> 
</g> 
<g id="19" transform="translate(489.501310 66894.11220) rotate(270.0)"> 
<path d="M60110.0 1.0 L61989.0 0.0 L61990.0 284.0 L60111.0 285.0 L60110.0 1.0 Z" fill="#8498d1" stroke="#010101" stroke-width="1" /> 
</g> 
<g id="38" transform="translate(99437.112110 6336.23320) rotate(180.0)"> 
<path d="M96780.0 1.0 L98659.0 0.0 L98660.0 284.0 L96781.0 285.0 L96780.0 1.0 Z" fill="#8498d1" stroke="#010101" stroke-width="1" /> 
</g> 
<g id="31" transform="translate(-82492.735110 6338.23370) rotate(0.0)"> 
<path d="M83270.0 1.0 L85149.0 0.0 L85150.0 284.0 L83271.0 285.0 L83270.0 1.0 Z" fill="#8498d1" stroke="#010101" stroke-width="1" /> 
</g> 
<g id="24" transform="translate(-67100.740410 6335.72790) rotate(0.0)"> 
<path d="M69760.0 1.0 L71639.0 0.0 L71640.0 284.0 L69761.0 285.0 L69760.0 1.0 Z" fill="#8498d1" stroke="#010101" stroke-width="1" /> 
</g> 
<g id="36" transform="translate(-90261.234610 6622.72870) rotate(0.0)"> 
<path d="M92920.0 1.0 L94799.0 0.0 L94800.0 284.0 L92921.0 285.0 L92920.0 1.0 Z" fill="#8498d1" stroke="#010101" stroke-width="1" /> 
</g> 
<g id="43" transform="translate(5136.84610 -106428.50) rotate(90.0)"> 
<path d="M106430.0 1.0 L108309.0 0.0 L108310.0 284.0 L106431.0 285.0 L106430.0 1.0 Z" fill="#8498d1" stroke="#010101" stroke-width="1" /> 
</g> 
<g id="29" transform="translate(82067.323610 7067.28420) rotate(180.0)"> 
<path d="M79410.0 1.0 L81289.0 0.0 L81290.0 284.0 L79411.0 285.0 L79410.0 1.0 Z" fill="#8498d1" stroke="#010101" stroke-width="1" /> 
</g> 
<g id="41" transform="translate(107109.775810 7194.72860) rotate(180.0)"> 
<path d="M102570.0 1.0 L104449.0 0.0 L104450.0 284.0 L102571.0 285.0 L102570.0 1.0 Z" fill="#8498d1" stroke="#010101" stroke-width="1" /> 
</g> 
<g id="45" transform="translate(71.499710 -103634.50780) rotate(90.0)"> 
<path d="M110290.0 1.0 L110391.0 0.0 L110392.0 69.0 L110291.0 70.0 L110290.0 1.0 Z" fill="#8498d1" stroke="#010101" stroke-width="1" /> 
</g> 
</g> 
</svg>